<svg width="12" height="13" viewBox="0 0 12 13" fill="none" xmlns="http://www.w3.org/2000/svg">
<path d="M5.39952 0.282464C5.30401 0.373624 5.22749 0.482791 5.17439 0.603671C5.12128 0.72455 5.09263 0.854749 5.0901 0.986755C5.08757 1.11876 5.11119 1.24996 5.15962 1.37279C5.20805 1.49562 5.28032 1.60764 5.37226 1.7024L8.60896 5.05561L1.01928 4.90991C0.754076 4.90482 0.49771 5.00529 0.306582 5.18922C0.115453 5.37315 0.00521814 5.62547 0.000126993 5.89068C-0.00496415 6.15588 0.0955058 6.41225 0.279434 6.60338C0.463363 6.7945 0.715684 6.90474 0.980889 6.90983L8.57057 7.05553L5.20755 10.282C5.01564 10.4667 4.90496 10.7201 4.89985 10.9864C4.89473 11.2527 4.99561 11.5101 5.1803 11.702C5.36498 11.8939 5.61833 12.0046 5.88462 12.0097C6.15091 12.0148 6.40833 11.9139 6.60024 11.7292L11.696 6.82543C11.7889 6.73208 11.8624 6.62131 11.9123 6.49948C11.9675 6.3808 11.9973 6.2519 11.9999 6.12103C12.0024 5.99017 11.9775 5.86022 11.9269 5.73951C11.8817 5.61585 11.8125 5.50234 11.7233 5.40549L6.81946 0.309722C6.7283 0.214214 6.61913 0.137697 6.49825 0.0845915C6.37737 0.0314856 6.24717 0.00284025 6.11516 0.000306129C5.98316 -0.002228 5.85196 0.0213992 5.72913 0.0698267C5.6063 0.118254 5.49427 0.190524 5.39952 0.282464Z" fill="#F0F0F0"/>
</svg>
